<svg width="24" height="20" viewBox="0 0 24 20" fill="none" xmlns="http://www.w3.org/2000/svg">
<path d="M0.0930851 1.03895C-0.168652 0.579196 0.152658 0 0.669444 0H6.72075C6.95867 0 7.17866 0.130488 7.29839 0.342627L10.7431 6.44634C10.8692 6.66982 10.8635 6.94731 10.7284 7.16513L10.1968 8.02222C9.92841 8.45486 9.31225 8.44382 9.0586 8.00184L6.04585 2.75207C5.92551 2.54239 5.70686 2.41379 5.47068 2.41379H4.6862C4.16807 2.41379 3.84694 2.99571 4.11139 3.45543L9.02827 12.0031C9.28921 12.4567 9.92703 12.4525 10.1823 11.9954L16.688 0.345361C16.8073 0.13168 17.0281 0 17.2672 0H23.3306C23.8442 0 24.1659 0.572886 23.9105 1.03265L13.5642 19.6533C13.4451 19.8678 13.2238 20 12.9843 20H11.849C11.3359 20 11.0141 19.4283 11.2684 18.9685L19.9031 3.35909C20.1574 2.89933 19.8356 2.32759 19.3225 2.32759H18.6043C18.3651 2.32759 18.1442 2.45941 18.0249 2.67328L10.1851 16.7305C9.92932 17.189 9.28904 17.192 9.02934 16.7358L0.0930851 1.03895Z" fill="white"/>
</svg>
